<?xml version="1.0" encoding="utf-8"?>
<!-- Generator: Adobe Illustrator 16.0.0, SVG Export Plug-In . SVG Version: 6.00 Build 0)  -->
<!DOCTYPE svg PUBLIC "-//W3C//DTD SVG 1.1//EN" "http://www.w3.org/Graphics/SVG/1.1/DTD/svg11.dtd">
<svg version="1.1" xmlns="http://www.w3.org/2000/svg" xmlns:xlink="http://www.w3.org/1999/xlink" x="0px" y="0px" width="612px"
	 height="612px" viewBox="0 0 612 612" enable-background="new 0 0 612 612" xml:space="preserve">
<g id="Capa_1" display="none">
</g>
<g id="Vision">
</g>
<g id="Capa_2" display="none">
</g>
<g id="Mision">
</g>
<g id="Capa_3" display="none">
</g>
<g id="Capa_7">
</g>
<g id="Capa_4" display="none">
</g>
<g id="Objetivos">
</g>
<g id="Capa_9">
</g>
<g id="Capa_10_1_">
</g>
<g id="Capa_11_2_">
	<g>
		<g id="Capa_12_2_">
			<g>
				<polygon fill="#5E5E5E" points="395.986,602.263 302.302,509.128 208.618,602.263 208.618,370.739 395.986,370.739 				"/>
				<circle fill="#EFC516" cx="304.163" cy="202.467" r="193.482"/>
				<circle fill="none" stroke="#C67D09" stroke-width="7.343" stroke-miterlimit="10" cx="304.161" cy="198.066" r="154.727"/>
				<circle fill="#FFFF00" cx="304.163" cy="198.066" r="131.438"/>
				<polygon fill="#C67D09" points="304.163,126.837 327.308,173.731 379.06,181.251 341.612,217.752 350.45,269.293 
					304.163,244.958 257.878,269.293 266.716,217.752 229.269,181.251 281.02,173.731 				"/>
				<polygon fill="#FFFF00" points="304.163,145.963 321.517,181.13 360.328,186.769 332.245,214.143 338.876,252.792 
					304.163,234.544 269.452,252.792 276.083,214.143 247.999,186.769 286.809,181.13 				"/>
				<circle fill="none" stroke="#C67D09" stroke-width="9.1822" stroke-miterlimit="10" cx="304.163" cy="198.066" r="107.506"/>
			</g>
		</g>
	</g>
</g>
<g id="Capa_12_3_">
</g>
</svg>
