<?xml version="1.0" encoding="utf-8"?>
<!-- Generator: Adobe Illustrator 16.0.0, SVG Export Plug-In . SVG Version: 6.00 Build 0)  -->
<!DOCTYPE svg PUBLIC "-//W3C//DTD SVG 1.1//EN" "http://www.w3.org/Graphics/SVG/1.1/DTD/svg11.dtd">
<svg version="1.1" xmlns="http://www.w3.org/2000/svg" xmlns:xlink="http://www.w3.org/1999/xlink" x="0px" y="0px" width="612px"
	 height="612px" viewBox="0 0 612 612" enable-background="new 0 0 612 612" xml:space="preserve">
<g id="Capa_1" display="none">
</g>
<g id="Vision">
</g>
<g id="Capa_2" display="none">
</g>
<g id="Mision">
</g>
<g id="Capa_3" display="none">
</g>
<g id="Capa_7">
</g>
<g id="Capa_4" display="none">
</g>
<g id="Objetivos">
</g>
<g id="Capa_9">
	<g>
		<g id="Capa_13">
			<g>
				<g>
					<path fill="#BABABA" d="M124.435,327.735c45.214-7.247,83.511-32.734,110.972-73.928
						c15.658-23.491,23.718-45.775,27.009-56.439l165.707,99.471c-8.403,8.563-26.34,28.329-41.187,54.768
						c-25.398,45.226-29.559,88.982-12.156,126.906L135.688,593.176L124.435,327.735z"/>
					<path fill="#BABABA" d="M420.172,297.916c-9.537,10.262-24.726,28.3-37.605,51.237
						c-25.231,44.922-30.099,88.573-14.312,126.931l-227.88,109.284l-10.743-253.444c44.708-8.381,82.58-34.28,109.946-75.333
						c13.439-20.156,21.42-39.508,25.639-51.689l154.953,93.017 M436.263,295.877L259.372,189.693
						c0,0-28.322,118.976-140.138,133.733L131,600.985l250.49-120.129C334.645,389.376,436.263,295.877,436.263,295.877
						L436.263,295.877z"/>
				</g>
				<g>
					<path fill="#5E5E5E" d="M335.532,245.646l86.128,52.189c0,0-95.831,91.608-48.983,183.09L144.256,590.472"/>
				</g>
				<g>
					
						<rect x="232.775" y="195.288" transform="matrix(-0.8574 -0.5147 0.5147 -0.8574 566.9288 584.0245)" fill="#FFA100" width="263.21" height="36.354"/>
				</g>
				<polygon points="130.036,578.232 235.099,403.212 257.711,416.786 153.662,590.117 130.357,602.004 				"/>
				
					<rect x="275.282" y="76.623" transform="matrix(-0.8574 -0.5147 0.5147 -0.8574 696.613 459.0127)" fill="#FFA100" width="273.24" height="112.738"/>
				
					<rect x="310.428" y="52.019" transform="matrix(-0.8574 -0.5147 0.5147 -0.8574 619.1503 377.1422)" fill="#FFD900" width="102.798" height="101.541"/>
				
					<rect x="262.359" y="169.701" transform="matrix(-0.8574 -0.5147 0.5147 -0.8574 488.658 501.1317)" fill="#FFD900" width="102.799" height="26.327"/>
				<circle fill="#FFD900" cx="263.146" cy="380.797" r="32.594"/>
			</g>
		</g>
	</g>
</g>
<g id="Capa_10_1_">
</g>
<g id="Capa_11_2_">
</g>
<g id="Capa_12_3_">
</g>
</svg>
