<?xml version="1.0" encoding="utf-8"?>
<!-- Generator: Adobe Illustrator 16.0.0, SVG Export Plug-In . SVG Version: 6.00 Build 0)  -->
<!DOCTYPE svg PUBLIC "-//W3C//DTD SVG 1.1//EN" "http://www.w3.org/Graphics/SVG/1.1/DTD/svg11.dtd">
<svg version="1.1" xmlns="http://www.w3.org/2000/svg" xmlns:xlink="http://www.w3.org/1999/xlink" x="0px" y="0px" width="612px"
	 height="612px" viewBox="0 0 612 612" enable-background="new 0 0 612 612" xml:space="preserve">
<g id="Capa_1" display="none">
</g>
<g id="Vision">
</g>
<g id="Capa_2" display="none">
</g>
<g id="Mision">
</g>
<g id="Capa_3" display="none">
</g>
<g id="Capa_7">
</g>
<g id="Capa_4" display="none">
</g>
<g id="Objetivos">
</g>
<g id="Capa_9">
</g>
<g id="Capa_10_1_">
</g>
<g id="Capa_11_2_">
</g>
<g id="Capa_12_3_">
	<g>
		<g id="Capa_11_4_">
			<g>
				<path fill="#FFD900" d="M273.955,31.36c-72.242,9.036-99.992,109.78-99.992,188.065c0,125.256,101.539,226.796,226.797,226.796
					c10.604,0,24.123,5.317,31.25-2.136C529.711,341.908,583.678-7.372,273.955,31.36z M310.953,284.096
					c-38.523,0-69.752-31.229-69.752-69.752c0-38.523,31.229-69.752,69.752-69.752s69.752,31.229,69.752,69.752
					C380.705,252.867,349.477,284.096,310.953,284.096z"/>
				<circle fill="none" stroke="#FFA100" stroke-width="31.4198" stroke-miterlimit="10" cx="311.143" cy="212.648" r="80.667"/>
				<g id="XMLID_1_">
					<path fill="#5E5E5E" d="M310.953,42.613c50.039,0,97.084,19.486,132.467,54.87c35.385,35.383,54.871,82.427,54.871,132.466
						c0,47.477-27.791,118.386-76.248,194.544c-21.162,33.262-44.99,65.436-68.908,93.045c-15.17,17.51-29.834,32.506-42.768,43.816
						c-33.764-28.174-76.426-79.779-111.875-136.232c-22.457-35.76-41.131-72-54.002-104.804
						c-13.656-34.807-20.875-66.056-20.875-90.37c0-50.039,19.486-97.083,54.869-132.466
						C213.869,62.101,260.914,42.613,310.953,42.613 M310.953,11.193c-120.816,0-218.758,97.94-218.758,218.756
						c0,120.816,139.58,320.585,218.758,370.857c75.254-51.527,218.758-250.041,218.758-370.857
						C529.711,109.134,431.768,11.193,310.953,11.193L310.953,11.193z"/>
				</g>
			</g>
		</g>
	</g>
</g>
</svg>
